<svg width="100" height="100" viewBox="0 0 100 100" fill="none" xmlns="http://www.w3.org/2000/svg">
<g clip-path="url(#clip0_3_1391)">
<path d="M79.1667 29.1667V41.625C79.1667 41.625 70.875 41.6667 70.8333 41.625V29.1667H58.3333C58.3333 29.1667 58.375 20.875 58.3333 20.8334H70.8333V8.33337H79.1667V20.8334H91.6667V29.1667H79.1667ZM66.6667 45.8334V33.3334H54.1667V20.8334H20.8333C16.25 20.8334 12.5 24.5834 12.5 29.1667V79.1667C12.5 83.75 16.25 87.5 20.8333 87.5H70.8333C75.4167 87.5 79.1667 83.75 79.1667 79.1667V45.8334H66.6667ZM20.8333 79.1667L33.3333 62.5L41.6667 75L54.1667 58.3334L70.8333 79.1667H20.8333Z" fill="#AEAFB4"/>
</g>
<defs>
<clipPath id="clip0_3_1391">
<rect width="100" height="100" rx="8" fill="white"/>
</clipPath>
</defs>
</svg>
