<svg width="24" height="24" viewBox="0 0 24 24" fill="none" xmlns="http://www.w3.org/2000/svg">
<path d="M21 12.32C21 6.83 16.74 3.1 12 3.1C7.31 3.1 3 6.75 3 12.38C2.4 12.72 2 13.36 2 14.1V16.1C2 17.2 2.9 18.1 4 18.1H5V12C5 8.13 8.13 5 12 5C15.87 5 19 8.13 19 12V19.1H11V21.1H19C20.1 21.1 21 20.2 21 19.1V17.88C21.59 17.57 22 16.96 22 16.24V13.94C22 13.24 21.59 12.63 21 12.32Z" fill="#AEAFB4"/>
<path d="M8.99988 14.1C9.55216 14.1 9.99988 13.6523 9.99988 13.1C9.99988 12.5477 9.55216 12.1 8.99988 12.1C8.44759 12.1 7.99988 12.5477 7.99988 13.1C7.99988 13.6523 8.44759 14.1 8.99988 14.1Z" fill="#AEAFB4"/>
<path d="M14.9998 14.1C15.552 14.1 15.9998 13.6523 15.9998 13.1C15.9998 12.5477 15.552 12.1 14.9998 12.1C14.4475 12.1 13.9998 12.5477 13.9998 13.1C13.9998 13.6523 14.4475 14.1 14.9998 14.1Z" fill="#AEAFB4"/>
<path d="M17.9998 11.1301C17.5198 8.28012 15.0398 6.10012 12.0498 6.10012C9.01985 6.10012 5.75985 8.61012 6.01985 12.5501C8.48985 11.5401 10.3498 9.34012 10.8798 6.66012C12.1898 9.29012 14.8798 11.1001 17.9998 11.1301Z" fill="#AEAFB4"/>
</svg>
